<svg preserveAspectRatio="none" width="100%" height="100%" overflow="visible" style="display: block;" viewBox="0 0 15 16.5" fill="none" xmlns="http://www.w3.org/2000/svg">
<g id="Group">
<path id="Vector" d="M12.75 7.5H2.25C1.42157 7.5 0.75 8.17157 0.75 9V14.25C0.75 15.0784 1.42157 15.75 2.25 15.75H12.75C13.5784 15.75 14.25 15.0784 14.25 14.25V9C14.25 8.17157 13.5784 7.5 12.75 7.5Z" stroke="var(--stroke-0, #C7C7CC)" stroke-width="1.5"/>
<path id="Vector_2" d="M3.75 7.5V4.5C3.75 3.50544 4.14509 2.55161 4.84835 1.84835C5.55161 1.14509 6.50544 0.75 7.5 0.75C8.49456 0.75 9.44839 1.14509 10.1517 1.84835C10.8549 2.55161 11.25 3.50544 11.25 4.5V7.5" stroke="var(--stroke-0, #C7C7CC)" stroke-width="1.5"/>
</g>
</svg>
