<svg width="16" height="16" viewBox="0 0 16 16" fill="none" xmlns="http://www.w3.org/2000/svg">
<g clip-path="url(#clip0_283_830)">
<path d="M5.66683 9.66667C6.10886 9.66667 6.53278 9.49107 6.84534 9.17851C7.1579 8.86595 7.3335 8.44203 7.3335 8C7.3335 7.08 7.00016 6.66667 6.66683 6C5.95216 4.57133 6.5175 3.29733 8.00016 2C8.3335 3.66667 9.3335 5.26667 10.6668 6.33333C12.0002 7.4 12.6668 8.66667 12.6668 10C12.6668 11.2377 12.1752 12.4247 11.3 13.2998C10.4248 14.175 9.23784 14.6667 8.00016 14.6667C6.76249 14.6667 5.5755 14.175 4.70033 13.2998C3.82516 12.4247 3.3335 11.2377 3.3335 10C3.3335 9.23133 3.62216 8.47067 4.00016 8C4.15541 7.79301 4.35671 7.625 4.58814 7.50929C4.81957 7.39358 5.07475 7.33333 5.3335 7.33333C5.10416 8.09867 5.34016 8.68 6.00016 9L5.66683 9.66667Z" stroke="white" stroke-width="1.33333"/>
</g>
<defs>
<clipPath id="clip0_283_830">
<rect width="16" height="16" fill="white"/>
</clipPath>
</defs>
</svg>
