<svg width="13" height="13" viewBox="0 0 13 13" fill="none" xmlns="http://www.w3.org/2000/svg">
<path d="M4.60433 7.85417C4.96348 7.85417 5.30791 7.7115 5.56187 7.45754C5.81583 7.20359 5.9585 6.85915 5.9585 6.5C5.9585 5.7525 5.68766 5.41667 5.41683 4.875C4.83616 3.71421 5.2955 2.67908 6.50016 1.625C6.771 2.97917 7.5835 4.27917 8.66683 5.14583C9.75016 6.0125 10.2918 7.04167 10.2918 8.125C10.2918 9.13061 9.89235 10.095 9.18128 10.8061C8.4702 11.5172 7.50578 11.9167 6.50016 11.9167C5.49455 11.9167 4.53012 11.5172 3.81905 10.8061C3.10797 10.095 2.7085 9.13061 2.7085 8.125C2.7085 7.50046 2.94304 6.88242 3.25016 6.5C3.3763 6.33182 3.53986 6.19531 3.72789 6.1013C3.91593 6.00728 4.12327 5.95833 4.3335 5.95833C4.14716 6.58017 4.33891 7.0525 4.87516 7.3125L4.60433 7.85417Z" stroke="white" stroke-width="1.08333"/>
</svg>
