<svg width="18" height="18" viewBox="0 0 18 18" fill="none" xmlns="http://www.w3.org/2000/svg">
<path d="M4.5 3V15M13.5 3V15M4.5 6H13.5M4.5 12H13.5" stroke="#FF6B35" stroke-width="1.5" stroke-linecap="round"/>
<path d="M4.5 5.625C4.5 5.00368 3.99632 4.5 3.375 4.5C2.75368 4.5 2.25 5.00368 2.25 5.625V12.375C2.25 12.9963 2.75368 13.5 3.375 13.5C3.99632 13.5 4.5 12.9963 4.5 12.375V5.625Z" stroke="#FF6B35" stroke-width="1.5"/>
<path d="M15.75 5.625C15.75 5.00368 15.2463 4.5 14.625 4.5C14.0037 4.5 13.5 5.00368 13.5 5.625V12.375C13.5 12.9963 14.0037 13.5 14.625 13.5C15.2463 13.5 15.75 12.9963 15.75 12.375V5.625Z" stroke="#FF6B35" stroke-width="1.5"/>
</svg>
