<svg preserveAspectRatio="none" width="100%" height="100%" overflow="visible" style="display: block;" viewBox="0 0 38 38" fill="none" xmlns="http://www.w3.org/2000/svg">
<g id="Icon">
<path id="Vector" d="M19 3.16667L31.6667 7.91667V16.625C31.6667 24.9375 26.125 32.0467 19 34.0417C11.875 32.0467 6.33333 24.9375 6.33333 16.625V7.91667L19 3.16667Z" stroke="var(--stroke-0, #FF6B35)" stroke-width="2.375" stroke-linecap="round" stroke-linejoin="round"/>
<path id="Vector_2" d="M21.375 17.4167H16.625C15.7505 17.4167 15.0417 18.1255 15.0417 19V22.9583C15.0417 23.8328 15.7505 24.5417 16.625 24.5417H21.375C22.2495 24.5417 22.9583 23.8328 22.9583 22.9583V19C22.9583 18.1255 22.2495 17.4167 21.375 17.4167Z" stroke="var(--stroke-0, #FF6B35)" stroke-width="2.375" stroke-linecap="round" stroke-linejoin="round"/>
<path id="Vector_3" d="M15.8333 17.4167V15.0417C15.8333 14.2018 16.167 13.3964 16.7608 12.8025C17.3547 12.2086 18.1601 11.875 19 11.875C19.8399 11.875 20.6453 12.2086 21.2392 12.8025C21.833 13.3964 22.1667 14.2018 22.1667 15.0417V17.4167" stroke="var(--stroke-0, #FF6B35)" stroke-width="2.375" stroke-linecap="round" stroke-linejoin="round"/>
</g>
</svg>
