<svg xmlns="http://www.w3.org/2000/svg" fill="none" viewBox="0 0 394 80">
  <path fill="#000" d="M262 0h68.5v12.7h-27.2v66.6h-13.6V12.7H262V0ZM149 0v12.7h53.7L149 66.6v12.7h72.4V66.6h-55.2L221.4 11V0H149ZM251.4 0h-13.6v79.3h13.6V0ZM72.5 0 0 79.3h17.6l62.4-68.2v68.2h13.5V0h-21ZM104.8 0v79.3h13.6V18.9l47 60.4h16.6L120.1 0h-15.3Z"/>
  <path fill="#000" d="M338 66.6c0 7 5.7 12.7 12.7 12.7h30.6c7 0 12.7-5.7 12.7-12.7V12.7c0-7-5.7-12.7-12.7-12.7h-30.6c-7 0-12.7 5.7-12.7 12.7v53.9Zm12.7 0V12.7h30.6v53.9h-30.6Z"/>
</svg>
