<svg width="30" height="30" viewBox="0 0 30 30" fill="none" xmlns="http://www.w3.org/2000/svg">
<path d="M3.75 7.5H6.25H26.25" stroke="#FF3B30" stroke-width="2.25"/>
<path d="M23.75 7.5L22.5 25C22.5 25.663 22.2366 26.2989 21.7678 26.7678C21.2989 27.2366 20.663 27.5 20 27.5H10C9.33696 27.5 8.70107 27.2366 8.23223 26.7678C7.76339 26.2989 7.5 25.663 7.5 25L6.25 7.5" stroke="#FF3B30" stroke-width="2.25"/>
<path d="M12.5 13.75V21.25M17.5 13.75V21.25" stroke="#FF3B30" stroke-width="2.25"/>
<path d="M11.25 7.5V5C11.25 4.66848 11.3817 4.35054 11.6161 4.11612C11.8505 3.8817 12.1685 3.75 12.5 3.75H17.5C17.8315 3.75 18.1495 3.8817 18.3839 4.11612C18.6183 4.35054 18.75 4.66848 18.75 5V7.5" stroke="#FF3B30" stroke-width="2.25" stroke-linecap="round"/>
</svg>
