<svg width="18" height="18" viewBox="0 0 18 18" fill="none" xmlns="http://www.w3.org/2000/svg">
<path d="M2.25 4.5H3.75H15.75" stroke="#1C1C1E" stroke-width="1.5" stroke-linecap="round"/>
<path d="M14.25 4.5L13.5 15C13.5 15.3978 13.342 15.7794 13.0607 16.0607C12.7794 16.342 12.3978 16.5 12 16.5H6C5.60218 16.5 5.22064 16.342 4.93934 16.0607C4.65804 15.7794 4.5 15.3978 4.5 15L3.75 4.5" stroke="#1C1C1E" stroke-width="1.5" stroke-linecap="round" stroke-linejoin="round"/>
<path d="M7.5 8.25V12.75M10.5 8.25V12.75M6.75 4.5V3C6.75 2.80109 6.82902 2.61032 6.96967 2.46967C7.11032 2.32902 7.30109 2.25 7.5 2.25H10.5C10.6989 2.25 10.8897 2.32902 11.0303 2.46967C11.171 2.61032 11.25 2.80109 11.25 3V4.5" stroke="#1C1C1E" stroke-width="1.5" stroke-linecap="round"/>
</svg>
