<svg width="18" height="18" viewBox="0 0 18 18" fill="none" xmlns="http://www.w3.org/2000/svg">
<path d="M6.375 10.875C6.87228 10.875 7.34919 10.6775 7.70083 10.3258C8.05246 9.97419 8.25 9.49728 8.25 9C8.25 7.965 7.875 7.5 7.5 6.75C6.696 5.14275 7.332 3.7095 9 2.25C9.375 4.125 10.5 5.925 12 7.125C13.5 8.325 14.25 9.75 14.25 11.25C14.25 12.6424 13.6969 13.9777 12.7123 14.9623C11.7277 15.9469 10.3924 16.5 9 16.5C7.60761 16.5 6.27226 15.9469 5.28769 14.9623C4.30312 13.9777 3.75 12.6424 3.75 11.25C3.75 10.3853 4.07475 9.5295 4.5 9C4.67465 8.76713 4.90112 8.57813 5.16147 8.44795C5.42183 8.31777 5.70892 8.25 6 8.25C5.742 9.111 6.0075 9.765 6.75 10.125L6.375 10.875Z" stroke="#8E8E93" stroke-width="1.5"/>
</svg>
