<svg width="18" height="18" viewBox="0 0 18 18" fill="none" xmlns="http://www.w3.org/2000/svg">
<path d="M15.0002 12V5.25C15.0002 4.85218 14.8422 4.47064 14.5609 4.18934C14.2796 3.90804 13.898 3.75 13.5002 3.75H4.5002C4.10237 3.75 3.72084 3.90804 3.43954 4.18934C3.15823 4.47064 3.0002 4.85218 3.0002 5.25V12M15.0002 12H3.0002M15.0002 12L15.9602 13.9125C16.018 14.0272 16.0454 14.1549 16.0397 14.2833C16.034 14.4116 15.9954 14.5364 15.9277 14.6455C15.8599 14.7547 15.7652 14.8446 15.6527 14.9067C15.5402 14.9688 15.4137 15.0009 15.2852 15H2.7152C2.58672 15.0009 2.46016 14.9688 2.34766 14.9067C2.23516 14.8446 2.14049 14.7547 2.07273 14.6455C2.00497 14.5364 1.9664 14.4116 1.9607 14.2833C1.955 14.1549 1.98238 14.0272 2.0402 13.9125L3.0002 12" stroke="#1C1C1E" stroke-width="1.5"/>
</svg>
