<svg width="11" height="11" viewBox="0 0 11 11" fill="none" xmlns="http://www.w3.org/2000/svg">
<path d="M9.62508 5.86208C9.55298 6.64226 9.26018 7.38577 8.78094 8.00561C8.3017 8.62545 7.65584 9.09599 6.91894 9.36217C6.18204 9.62834 5.38457 9.67914 4.61985 9.50863C3.85513 9.33811 3.15478 8.95333 2.60076 8.39931C2.04674 7.8453 1.66197 7.14495 1.49145 6.38023C1.32094 5.61551 1.37174 4.81804 1.63791 4.08114C1.90409 3.34423 2.37462 2.69838 2.99447 2.21914C3.61431 1.7399 4.35782 1.4471 5.13799 1.375C4.68122 1.99296 4.46142 2.75433 4.51857 3.52065C4.57572 4.28697 4.90601 5.00732 5.44939 5.55069C5.99276 6.09406 6.71311 6.42436 7.47943 6.48151C8.24575 6.53865 9.00712 6.31885 9.62508 5.86208Z" stroke="#FF6B35" stroke-width="0.916667" stroke-linecap="round" stroke-linejoin="round"/>
</svg>
