<svg width="28" height="28" viewBox="0 0 28 28" fill="none" xmlns="http://www.w3.org/2000/svg">
<path d="M3.5 7H5.83333H24.5" stroke="#FF3B30" stroke-width="2.1"/>
<path d="M22.1666 7L20.9999 23.3333C20.9999 23.9522 20.7541 24.5457 20.3165 24.9832C19.8789 25.4208 19.2854 25.6667 18.6666 25.6667H9.33325C8.71441 25.6667 8.12092 25.4208 7.68334 24.9832C7.24575 24.5457 6.99992 23.9522 6.99992 23.3333L5.83325 7" stroke="#FF3B30" stroke-width="2.1"/>
<path d="M11.6667 12.834V19.834M16.3334 12.834V19.834" stroke="#FF3B30" stroke-width="2.1"/>
<path d="M10.5 7V4.66667C10.5 4.35725 10.6229 4.0605 10.8417 3.84171C11.0605 3.62292 11.3572 3.5 11.6667 3.5H16.3333C16.6428 3.5 16.9395 3.62292 17.1583 3.84171C17.3771 4.0605 17.5 4.35725 17.5 4.66667V7" stroke="#FF3B30" stroke-width="2.1" stroke-linecap="round"/>
</svg>
