<svg width="26" height="26" viewBox="0 0 26 26" fill="none" xmlns="http://www.w3.org/2000/svg">
<path d="M3.25 6.5H5.41667H22.75" stroke="#FF3B30" stroke-width="1.95"/>
<path d="M20.5834 6.5L19.5001 21.6667C19.5001 22.2413 19.2718 22.7924 18.8655 23.1987C18.4592 23.6051 17.9081 23.8333 17.3334 23.8333H8.66675C8.09211 23.8333 7.54101 23.6051 7.13468 23.1987C6.72835 22.7924 6.50008 22.2413 6.50008 21.6667L5.41675 6.5" stroke="#FF3B30" stroke-width="1.95"/>
<path d="M10.8333 11.916V18.416M15.1666 11.916V18.416" stroke="#FF3B30" stroke-width="1.95"/>
<path d="M9.75 6.5V4.33333C9.75 4.04602 9.86414 3.77047 10.0673 3.5673C10.2705 3.36414 10.546 3.25 10.8333 3.25H15.1667C15.454 3.25 15.7295 3.36414 15.9327 3.5673C16.1359 3.77047 16.25 4.04602 16.25 4.33333V6.5" stroke="#FF3B30" stroke-width="1.95" stroke-linecap="round"/>
</svg>
