<svg width="40" height="40" viewBox="0 0 40 40" fill="none" xmlns="http://www.w3.org/2000/svg">
<path d="M10.8333 10.8335H29.1667M10.8333 29.1668H29.1667" stroke="#FF6B35" stroke-width="3.33333" stroke-linecap="round"/>
<path d="M8.33333 13.3335H5C4.07953 13.3335 3.33333 14.0797 3.33333 15.0002V25.0002C3.33333 25.9206 4.07953 26.6668 5 26.6668H8.33333C9.25381 26.6668 10 25.9206 10 25.0002V15.0002C10 14.0797 9.25381 13.3335 8.33333 13.3335Z" stroke="#FF6B35" stroke-width="3.33333"/>
<path d="M35 13.3335H31.6667C30.7462 13.3335 30 14.0797 30 15.0002V25.0002C30 25.9206 30.7462 26.6668 31.6667 26.6668H35C35.9205 26.6668 36.6667 25.9206 36.6667 25.0002V15.0002C36.6667 14.0797 35.9205 13.3335 35 13.3335Z" stroke="#FF6B35" stroke-width="3.33333"/>
<path d="M20 10.8335V29.1668" stroke="#FF6B35" stroke-width="3.33333" stroke-linecap="round"/>
</svg>
