<svg width="18" height="18" viewBox="0 0 18 18" fill="none" xmlns="http://www.w3.org/2000/svg">
<path d="M4.875 4.875H13.125M4.875 13.125H13.125" stroke="#1C1C1E" stroke-width="1.5" stroke-linecap="round"/>
<path d="M3.75 6H2.25C1.83579 6 1.5 6.33579 1.5 6.75V11.25C1.5 11.6642 1.83579 12 2.25 12H3.75C4.16421 12 4.5 11.6642 4.5 11.25V6.75C4.5 6.33579 4.16421 6 3.75 6Z" stroke="#1C1C1E" stroke-width="1.5"/>
<path d="M15.75 6H14.25C13.8358 6 13.5 6.33579 13.5 6.75V11.25C13.5 11.6642 13.8358 12 14.25 12H15.75C16.1642 12 16.5 11.6642 16.5 11.25V6.75C16.5 6.33579 16.1642 6 15.75 6Z" stroke="#1C1C1E" stroke-width="1.5"/>
<path d="M9 4.875V13.125" stroke="#1C1C1E" stroke-width="1.5" stroke-linecap="round"/>
</svg>
