<svg width="52" height="52" viewBox="0 0 52 52" fill="none" xmlns="http://www.w3.org/2000/svg">
<path d="M41.1667 23.833H10.8333C8.4401 23.833 6.5 25.7731 6.5 28.1663V43.333C6.5 45.7262 8.4401 47.6663 10.8333 47.6663H41.1667C43.5599 47.6663 45.5 45.7262 45.5 43.333V28.1663C45.5 25.7731 43.5599 23.833 41.1667 23.833Z" stroke="#1C1C1E" stroke-width="3.25"/>
<path d="M15.1666 23.833V15.1663C15.1666 12.2932 16.308 9.53766 18.3396 7.50602C20.3713 5.47437 23.1268 4.33301 26 4.33301C28.8731 4.33301 31.6286 5.47437 33.6603 7.50602C35.6919 9.53766 36.8333 12.2932 36.8333 15.1663V23.833" stroke="#1C1C1E" stroke-width="3.25"/>
</svg>
