<svg width="20" height="20" viewBox="0 0 20 20" fill="none" xmlns="http://www.w3.org/2000/svg">
<path d="M18.8 10.209C18.8 9.55898 18.7417 8.93398 18.6333 8.33398H10V11.884H14.9333C14.7167 13.0257 14.0667 13.9923 13.0917 14.6423V16.9507H16.0667C17.8 15.3507 18.8 13.0007 18.8 10.209Z" fill="#4285F4"/>
<path d="M9.99998 19.1667C12.475 19.1667 14.55 18.35 16.0667 16.95L13.0917 14.6417C12.275 15.1917 11.2333 15.525 9.99998 15.525C7.61665 15.525 5.59165 13.9167 4.86665 11.75H1.81665V14.1167C3.32498 17.1083 6.41665 19.1667 9.99998 19.1667Z" fill="#34A853"/>
<path d="M4.86671 11.7426C4.68337 11.1926 4.57504 10.6092 4.57504 10.0009C4.57504 9.39258 4.68337 8.80924 4.86671 8.25924V5.89258H1.81671C1.19171 7.12591 0.833374 8.51758 0.833374 10.0009C0.833374 11.4842 1.19171 12.8759 1.81671 14.1092L4.86671 11.7426Z" fill="#FBBC05"/>
<path d="M9.99998 4.48398C11.35 4.48398 12.55 4.95065 13.5083 5.85065L16.1333 3.22565C14.5417 1.74232 12.475 0.833984 9.99998 0.833984C6.41665 0.833984 3.32498 2.89232 1.81665 5.89232L4.86665 8.25898C5.59165 6.09232 7.61665 4.48398 9.99998 4.48398Z" fill="#EA4335"/>
</svg>
