<svg width="56" height="56" viewBox="0 0 56 56" fill="none" xmlns="http://www.w3.org/2000/svg">
<path d="M44.3333 25.667H11.6667C9.08934 25.667 7 27.7563 7 30.3337V46.667C7 49.2443 9.08934 51.3337 11.6667 51.3337H44.3333C46.9107 51.3337 49 49.2443 49 46.667V30.3337C49 27.7563 46.9107 25.667 44.3333 25.667Z" stroke="#1C1C1E" stroke-width="3.5"/>
<path d="M16.3334 25.667V16.3337C16.3334 13.2395 17.5625 10.272 19.7505 8.08408C21.9384 5.89616 24.9058 4.66699 28 4.66699C31.0942 4.66699 34.0617 5.89616 36.2496 8.08408C38.4375 10.272 39.6667 13.2395 39.6667 16.3337V25.667" stroke="#1C1C1E" stroke-width="3.5"/>
</svg>
