<svg width="38" height="38" viewBox="0 0 38 38" fill="none" xmlns="http://www.w3.org/2000/svg">
<path d="M19 3.16602L31.6667 7.91602V16.6243C31.6667 24.9368 26.125 32.046 19 34.041C11.875 32.046 6.33337 24.9368 6.33337 16.6243V7.91602L19 3.16602Z" stroke="#FF6B35" stroke-width="2.375" stroke-linecap="round" stroke-linejoin="round"/>
<path d="M21.375 17.416H16.625C15.7505 17.416 15.0416 18.1249 15.0416 18.9993V22.9577C15.0416 23.8321 15.7505 24.541 16.625 24.541H21.375C22.2494 24.541 22.9583 23.8321 22.9583 22.9577V18.9993C22.9583 18.1249 22.2494 17.416 21.375 17.416Z" stroke="#FF6B35" stroke-width="2.375" stroke-linecap="round" stroke-linejoin="round"/>
<path d="M15.8334 17.4167V15.0417C15.8334 14.2018 16.167 13.3964 16.7609 12.8025C17.3547 12.2086 18.1602 11.875 19 11.875C19.8399 11.875 20.6453 12.2086 21.2392 12.8025C21.8331 13.3964 22.1667 14.2018 22.1667 15.0417V17.4167" stroke="#FF6B35" stroke-width="2.375" stroke-linecap="round" stroke-linejoin="round"/>
</svg>
